<svg width="111" height="38" viewBox="0 0 111 38" fill="none" xmlns="http://www.w3.org/2000/svg">
    <path d="M4.24219 37V16.6094H0.46875V11.6406H4.24219V10.4688C4.27344 7.28125 5.25 4.82812 7.17188 3.10938C9.10938 1.375 11.8359 0.507812 15.3516 0.507812C17.4609 0.507812 20.0234 0.96875 23.0391 1.89062L22.0547 7.49219C20.5234 7.03906 19.3359 6.75 18.4922 6.625C17.6484 6.48438 16.7422 6.41406 15.7734 6.41406C12.6172 6.41406 11.0391 7.8125 11.0391 10.6094V11.6406H16.0312V16.6094H11.0391V37H4.24219ZM26.2031 37H19.4062V11.6406H26.2031V37ZM39.4791 11.6406L39.69 14.5703C41.5025 12.3047 43.9322 11.1719 46.9791 11.1719C49.6666 11.1719 51.6666 11.9609 52.9791 13.5391C54.2916 15.1172 54.9634 17.4766 54.9947 20.6172V37H48.2213V20.7812C48.2213 19.3438 47.9088 18.3047 47.2838 17.6641C46.6588 17.0078 45.6197 16.6797 44.1666 16.6797C42.2603 16.6797 40.8306 17.4922 39.8775 19.1172V37H33.1041V11.6406H39.4791ZM76.2863 37C75.9738 36.3906 75.7472 35.6328 75.6066 34.7266C73.9659 36.5547 71.8331 37.4688 69.2081 37.4688C66.7238 37.4688 64.6613 36.75 63.0206 35.3125C61.3956 33.875 60.5831 32.0625 60.5831 29.875C60.5831 27.1875 61.5753 25.125 63.5597 23.6875C65.5597 22.25 68.4425 21.5234 72.2081 21.5078H75.3253V20.0547C75.3253 18.8828 75.0206 17.9453 74.4113 17.2422C73.8175 16.5391 72.8722 16.1875 71.5753 16.1875C70.4347 16.1875 69.5363 16.4609 68.88 17.0078C68.2394 17.5547 67.9191 18.3047 67.9191 19.2578H61.1456C61.1456 17.7891 61.5988 16.4297 62.505 15.1797C63.4113 13.9297 64.6925 12.9531 66.3488 12.25C68.005 11.5312 69.8644 11.1719 71.9269 11.1719C75.0519 11.1719 77.5284 11.9609 79.3566 13.5391C81.2003 15.1016 82.1222 17.3047 82.1222 20.1484V31.1406C82.1378 33.5469 82.4738 35.3672 83.13 36.6016V37H76.2863ZM70.6847 32.2891C71.6847 32.2891 72.6066 32.0703 73.4503 31.6328C74.2941 31.1797 74.9191 30.5781 75.3253 29.8281V25.4688H72.7941C69.4034 25.4688 67.5988 26.6406 67.38 28.9844L67.3566 29.3828C67.3566 30.2266 67.6534 30.9219 68.2472 31.4688C68.8409 32.0156 69.6534 32.2891 70.6847 32.2891ZM98.4216 19.2109L102.687 11.6406H109.929L102.711 24.0625L110.234 37H102.968L98.445 29.0312L93.945 37H86.6559L94.1794 24.0625L86.9841 11.6406H94.2497L98.4216 19.2109Z" fill="#106CD7"/>
    <path d="M22.5 7.5C22.5416 5.8375 22.3263 5 24 5C24.7939 5 25.5 4.78862 25.5 5.77778C25.5 8.28128 24.6915 8.5 22.5 8.5" stroke="#1DC5FA" stroke-width="3" stroke-linecap="round"/>
    <path d="M25.5 3.5C23.4134 3.5 21 2.5589 21 5C21 6.16667 21 7.33333 21 8.5" stroke="#1DC5FA" stroke-width="3" stroke-linecap="round"/>
    <path d="M25.5 3.5C23.4134 3.5 21 2.5589 21 5C21 6.16667 21 7.33333 21 8.5" stroke="#1DC5FA" stroke-width="3" stroke-linecap="round"/>
    </svg>
    